M48
; DRILL file {KiCad 7.0.6} date Thu Aug  1 17:58:26 2024
; FORMAT={-:-/ absolute / inch / decimal}
; #@! TF.CreationDate,2024-08-01T17:58:26-04:00
; #@! TF.GenerationSoftware,Kicad,Pcbnew,7.0.6
; #@! TF.FileFunction,Plated,1,2,PTH
FMAT,2
INCH
; #@! TA.AperFunction,Plated,PTH,ViaDrill
T1C0.0157
; #@! TA.AperFunction,Plated,PTH,ComponentDrill
T2C0.0276
; #@! TA.AperFunction,Plated,PTH,ComponentDrill
T3C0.0400
; #@! TA.AperFunction,Plated,PTH,ComponentDrill
T4C0.0551
; #@! TA.AperFunction,Plated,PTH,ComponentDrill
T5C0.0669
%
G90
G05
T1
X4.765Y-3.43
X4.765Y-3.58
X4.765Y-3.625
X4.765Y-3.32
X4.765Y-3.37
X4.765Y-3.48
X4.765Y-3.53
X4.765Y-3.675
X4.954Y-3.289
X4.955Y-3.77
X4.955Y-3.48
X4.965Y-3.87
X4.965Y-3.92
X4.965Y-3.97
X4.965Y-4.02
X4.99Y-3.32
X5.025Y-3.97
X5.025Y-4.02
X5.025Y-3.87
X5.025Y-3.92
X5.095Y-3.87
X5.095Y-3.92
X5.095Y-3.97
X5.095Y-4.02
X5.105Y-3.77
X5.265Y-3.43
X5.265Y-3.48
X5.265Y-3.53
X5.265Y-3.58
X5.35Y-3.875
X5.65Y-3.175
X5.66Y-2.8
X5.7417Y-3.6433
X5.87Y-3.535
X5.885Y-3.425
X5.93Y-3.34
X6.455Y-3.37
T2
X6.3693Y-2.6893
X6.5107Y-2.8307
T3
X5.3601Y-3.7007
X5.4308Y-3.63
X5.5015Y-3.5593
X5.5722Y-3.4886
X5.6429Y-3.4178
X5.7136Y-3.3471
X5.7843Y-3.2764
X5.7843Y-4.1249
X5.855Y-3.2057
X5.855Y-4.0542
X5.9257Y-3.135
X5.9257Y-3.9835
X5.9611Y-3.8068
X5.9964Y-3.0643
X5.9964Y-3.9128
X6.0318Y-3.736
X6.0672Y-2.9936
X6.0672Y-3.8421
X6.1379Y-2.9229
X6.1379Y-3.7714
X6.2086Y-3.7007
X6.2793Y-3.63
X6.35Y-3.135
X6.35Y-3.5593
X6.4207Y-3.2057
X6.4207Y-3.4886
X6.4914Y-3.2764
X6.4914Y-3.4178
X6.5621Y-3.3471
T4
X5.082Y-3.1746
X5.3604Y-3.453
X5.6388Y-2.8962
T5
X4.795Y-3.0921
X4.85Y-3.905
X5.075Y-4.14
X5.22Y-3.9
X5.76Y-2.685
X5.99Y-2.755
X6.07Y-2.53
X6.3337Y-2.4651
T0
M30
