%TF.GenerationSoftware,KiCad,Pcbnew,7.0.6*%
%TF.CreationDate,2024-08-01T17:58:24-04:00*%
%TF.ProjectId,Arduino_Motor_Shield,41726475-696e-46f5-9f4d-6f746f725f53,rev?*%
%TF.SameCoordinates,Original*%
%TF.FileFunction,Soldermask,Bot*%
%TF.FilePolarity,Negative*%
%FSLAX46Y46*%
G04 Gerber Fmt 4.6, Leading zero omitted, Abs format (unit mm)*
G04 Created by KiCad (PCBNEW 7.0.6) date 2024-08-01 17:58:24*
%MOMM*%
%LPD*%
G01*
G04 APERTURE LIST*
G04 Aperture macros list*
%AMRoundRect*
0 Rectangle with rounded corners*
0 $1 Rounding radius*
0 $2 $3 $4 $5 $6 $7 $8 $9 X,Y pos of 4 corners*
0 Add a 4 corners polygon primitive as box body*
4,1,4,$2,$3,$4,$5,$6,$7,$8,$9,$2,$3,0*
0 Add four circle primitives for the rounded corners*
1,1,$1+$1,$2,$3*
1,1,$1+$1,$4,$5*
1,1,$1+$1,$6,$7*
1,1,$1+$1,$8,$9*
0 Add four rect primitives between the rounded corners*
20,1,$1+$1,$2,$3,$4,$5,0*
20,1,$1+$1,$4,$5,$6,$7,0*
20,1,$1+$1,$6,$7,$8,$9,0*
20,1,$1+$1,$8,$9,$2,$3,0*%
%AMHorizOval*
0 Thick line with rounded ends*
0 $1 width*
0 $2 $3 position (X,Y) of the first rounded end (center of the circle)*
0 $4 $5 position (X,Y) of the second rounded end (center of the circle)*
0 Add line between two ends*
20,1,$1,$2,$3,$4,$5,0*
0 Add two circle primitives to create the rounded ends*
1,1,$1,$2,$3*
1,1,$1,$4,$5*%
%AMRotRect*
0 Rectangle, with rotation*
0 The origin of the aperture is its center*
0 $1 length*
0 $2 width*
0 $3 Rotation angle, in degrees counterclockwise*
0 Add horizontal line*
21,1,$1,$2,0,0,$3*%
G04 Aperture macros list end*
%ADD10C,3.000000*%
%ADD11C,1.400000*%
%ADD12HorizOval,1.400000X0.000000X0.000000X0.000000X0.000000X0*%
%ADD13C,1.727200*%
%ADD14RotRect,1.727200X1.727200X315.000000*%
%ADD15C,7.000000*%
%ADD16RoundRect,0.102000X1.484924X0.000000X0.000000X1.484924X-1.484924X0.000000X0.000000X-1.484924X0*%
%ADD17C,2.304000*%
G04 APERTURE END LIST*
D10*
%TO.C,H2*%
X121793000Y-78539500D03*
%TD*%
D11*
%TO.C,R6*%
X165372051Y-71900051D03*
D12*
X161779949Y-68307949D03*
%TD*%
D10*
%TO.C,H1*%
X128905000Y-105156000D03*
%TD*%
%TO.C,H6*%
X152146000Y-69977000D03*
%TD*%
%TO.C,H7*%
X146304000Y-68199000D03*
%TD*%
%TO.C,H4*%
X132587998Y-99060000D03*
%TD*%
%TO.C,H5*%
X160875421Y-62614618D03*
%TD*%
%TO.C,H3*%
X123189998Y-99186998D03*
%TD*%
%TO.C,H8*%
X154178000Y-64262000D03*
%TD*%
D13*
%TO.C,A1*%
X159493949Y-92201358D03*
X157697898Y-93997409D03*
X155901847Y-95793461D03*
X154105795Y-97589512D03*
X153207770Y-94895435D03*
X151411719Y-96691486D03*
X163086052Y-81425051D03*
X164882103Y-83221102D03*
X137941334Y-92201358D03*
X136145283Y-93997409D03*
X143329488Y-86813205D03*
X145125539Y-85017153D03*
X146921591Y-83221102D03*
X148717642Y-81425051D03*
X150513693Y-79629000D03*
X152309744Y-77832948D03*
X154105795Y-76036897D03*
X155901847Y-74240846D03*
X166678154Y-85017153D03*
X164882103Y-86813205D03*
X163086052Y-88609256D03*
X161290000Y-90405307D03*
D14*
X141533437Y-88609256D03*
X148717642Y-102977666D03*
X161290000Y-79629000D03*
D13*
X146921591Y-104773717D03*
X139737386Y-90405307D03*
X150513693Y-101181614D03*
X152309744Y-99385563D03*
%TD*%
D15*
%TO.C,R1*%
X137922000Y-78867000D03*
D16*
X136154233Y-87705835D03*
D17*
X129083165Y-80634767D03*
X143225301Y-73563699D03*
%TD*%
M02*
