%TF.GenerationSoftware,KiCad,Pcbnew,7.0.6*%
%TF.CreationDate,2024-08-01T17:58:24-04:00*%
%TF.ProjectId,Arduino_Motor_Shield,41726475-696e-46f5-9f4d-6f746f725f53,rev?*%
%TF.SameCoordinates,Original*%
%TF.FileFunction,Soldermask,Top*%
%TF.FilePolarity,Negative*%
%FSLAX46Y46*%
G04 Gerber Fmt 4.6, Leading zero omitted, Abs format (unit mm)*
G04 Created by KiCad (PCBNEW 7.0.6) date 2024-08-01 17:58:24*
%MOMM*%
%LPD*%
G01*
G04 APERTURE LIST*
G04 Aperture macros list*
%AMRoundRect*
0 Rectangle with rounded corners*
0 $1 Rounding radius*
0 $2 $3 $4 $5 $6 $7 $8 $9 X,Y pos of 4 corners*
0 Add a 4 corners polygon primitive as box body*
4,1,4,$2,$3,$4,$5,$6,$7,$8,$9,$2,$3,0*
0 Add four circle primitives for the rounded corners*
1,1,$1+$1,$2,$3*
1,1,$1+$1,$4,$5*
1,1,$1+$1,$6,$7*
1,1,$1+$1,$8,$9*
0 Add four rect primitives between the rounded corners*
20,1,$1+$1,$2,$3,$4,$5,0*
20,1,$1+$1,$4,$5,$6,$7,0*
20,1,$1+$1,$6,$7,$8,$9,0*
20,1,$1+$1,$8,$9,$2,$3,0*%
%AMHorizOval*
0 Thick line with rounded ends*
0 $1 width*
0 $2 $3 position (X,Y) of the first rounded end (center of the circle)*
0 $4 $5 position (X,Y) of the second rounded end (center of the circle)*
0 Add line between two ends*
20,1,$1,$2,$3,$4,$5,0*
0 Add two circle primitives to create the rounded ends*
1,1,$1,$2,$3*
1,1,$1,$4,$5*%
%AMRotRect*
0 Rectangle, with rotation*
0 The origin of the aperture is its center*
0 $1 length*
0 $2 width*
0 $3 Rotation angle, in degrees counterclockwise*
0 Add horizontal line*
21,1,$1,$2,0,0,$3*%
G04 Aperture macros list end*
%ADD10C,3.000000*%
%ADD11RoundRect,0.250000X0.132583X-0.503814X0.503814X-0.132583X-0.132583X0.503814X-0.503814X0.132583X0*%
%ADD12RoundRect,0.250000X-0.503814X-0.132583X-0.132583X-0.503814X0.503814X0.132583X0.132583X0.503814X0*%
%ADD13C,1.400000*%
%ADD14HorizOval,1.400000X0.000000X0.000000X0.000000X0.000000X0*%
%ADD15RoundRect,0.250000X-0.132583X0.503814X-0.503814X0.132583X0.132583X-0.503814X0.503814X-0.132583X0*%
%ADD16R,0.650000X1.525000*%
%ADD17RotRect,1.600000X3.000000X135.000000*%
%ADD18RotRect,6.700000X6.700000X225.000000*%
%ADD19RoundRect,0.250000X0.503814X0.132583X0.132583X0.503814X-0.503814X-0.132583X-0.132583X-0.503814X0*%
%ADD20R,0.800000X0.700000*%
%ADD21C,1.727200*%
%ADD22RotRect,1.727200X1.727200X315.000000*%
%ADD23C,7.000000*%
%ADD24RoundRect,0.102000X1.484924X0.000000X0.000000X1.484924X-1.484924X0.000000X0.000000X-1.484924X0*%
%ADD25C,2.304000*%
G04 APERTURE END LIST*
D10*
%TO.C,H2*%
X121793000Y-78539500D03*
%TD*%
D11*
%TO.C,R4*%
X156770565Y-86199505D03*
X158061035Y-84909035D03*
%TD*%
D12*
%TO.C,R9*%
X153014530Y-90022530D03*
X154305000Y-91313000D03*
%TD*%
D13*
%TO.C,R6*%
X165372051Y-71900051D03*
D14*
X161779949Y-68307949D03*
%TD*%
D15*
%TO.C,R2*%
X153889105Y-80737105D03*
X152598635Y-82027575D03*
%TD*%
D10*
%TO.C,H1*%
X128905000Y-105156000D03*
%TD*%
%TO.C,H6*%
X152146000Y-69977000D03*
%TD*%
%TO.C,H7*%
X146304000Y-68199000D03*
%TD*%
D16*
%TO.C,IC1*%
X123316999Y-91739001D03*
X124586999Y-91739001D03*
X125856999Y-91739001D03*
X127126999Y-91739001D03*
X128396999Y-91739001D03*
X129666999Y-91739001D03*
X130936999Y-91739001D03*
X132206999Y-91739001D03*
X132206999Y-86315001D03*
X130936999Y-86315001D03*
X129666999Y-86315001D03*
X128396999Y-86315001D03*
X127126999Y-86315001D03*
X125856999Y-86315001D03*
X124586999Y-86315001D03*
X123316999Y-86315001D03*
%TD*%
D10*
%TO.C,H4*%
X132587998Y-99060000D03*
%TD*%
D15*
%TO.C,R3*%
X155975070Y-82823070D03*
X154684600Y-84113540D03*
%TD*%
D12*
%TO.C,R8*%
X160888530Y-84180530D03*
X162179000Y-85471000D03*
%TD*%
D10*
%TO.C,H5*%
X160875421Y-62614618D03*
%TD*%
%TO.C,H3*%
X123189998Y-99186998D03*
%TD*%
D17*
%TO.C,IC2*%
X149838606Y-92936086D03*
D18*
X143510000Y-96012000D03*
D17*
X146585914Y-89683394D03*
%TD*%
D11*
%TO.C,R5*%
X158856530Y-88285470D03*
X160147000Y-86995000D03*
%TD*%
D19*
%TO.C,R7*%
X147828000Y-77851000D03*
X146537530Y-76560530D03*
%TD*%
D10*
%TO.C,H8*%
X154178000Y-64262000D03*
%TD*%
D20*
%TO.C,LED1*%
X141097000Y-69723000D03*
X139397000Y-69723000D03*
X139397000Y-68623000D03*
X141097000Y-68623000D03*
%TD*%
D21*
%TO.C,A1*%
X159493949Y-92201358D03*
X157697898Y-93997409D03*
X155901847Y-95793461D03*
X154105795Y-97589512D03*
X153207770Y-94895435D03*
X151411719Y-96691486D03*
X163086052Y-81425051D03*
X164882103Y-83221102D03*
X137941334Y-92201358D03*
X136145283Y-93997409D03*
X143329488Y-86813205D03*
X145125539Y-85017153D03*
X146921591Y-83221102D03*
X148717642Y-81425051D03*
X150513693Y-79629000D03*
X152309744Y-77832948D03*
X154105795Y-76036897D03*
X155901847Y-74240846D03*
X166678154Y-85017153D03*
X164882103Y-86813205D03*
X163086052Y-88609256D03*
X161290000Y-90405307D03*
D22*
X141533437Y-88609256D03*
X148717642Y-102977666D03*
X161290000Y-79629000D03*
D21*
X146921591Y-104773717D03*
X139737386Y-90405307D03*
X150513693Y-101181614D03*
X152309744Y-99385563D03*
%TD*%
D23*
%TO.C,R1*%
X137922000Y-78867000D03*
D24*
X136154233Y-87705835D03*
D25*
X129083165Y-80634767D03*
X143225301Y-73563699D03*
%TD*%
M02*
