%TF.GenerationSoftware,KiCad,Pcbnew,7.0.6*%
%TF.CreationDate,2024-08-01T17:58:24-04:00*%
%TF.ProjectId,Arduino_Motor_Shield,41726475-696e-46f5-9f4d-6f746f725f53,rev?*%
%TF.SameCoordinates,Original*%
%TF.FileFunction,Legend,Bot*%
%TF.FilePolarity,Positive*%
%FSLAX46Y46*%
G04 Gerber Fmt 4.6, Leading zero omitted, Abs format (unit mm)*
G04 Created by KiCad (PCBNEW 7.0.6) date 2024-08-01 17:58:24*
%MOMM*%
%LPD*%
G01*
G04 APERTURE LIST*
%ADD10C,0.150000*%
%ADD11C,0.075000*%
%ADD12C,0.127000*%
%ADD13C,0.200000*%
G04 APERTURE END LIST*
D10*
X133657102Y-98573373D02*
X133320384Y-98236655D01*
X133522415Y-98842747D02*
X133993819Y-97899938D01*
X133993819Y-97899938D02*
X133051010Y-98371342D01*
X132444919Y-97765251D02*
X132848980Y-98169312D01*
X132646949Y-97967281D02*
X133354056Y-97260175D01*
X133354056Y-97260175D02*
X133320384Y-97428533D01*
X133320384Y-97428533D02*
X133320384Y-97563220D01*
X133320384Y-97563220D02*
X133354056Y-97664236D01*
D11*
X138135241Y-94334153D02*
X138488794Y-94687706D01*
X138488794Y-94687706D02*
X138572974Y-94603527D01*
X138572974Y-94603527D02*
X138606645Y-94536183D01*
X138606645Y-94536183D02*
X138606645Y-94468840D01*
X138606645Y-94468840D02*
X138589809Y-94418332D01*
X138589809Y-94418332D02*
X138539302Y-94334153D01*
X138539302Y-94334153D02*
X138488794Y-94283645D01*
X138488794Y-94283645D02*
X138404615Y-94233137D01*
X138404615Y-94233137D02*
X138354107Y-94216301D01*
X138354107Y-94216301D02*
X138286764Y-94216301D01*
X138286764Y-94216301D02*
X138219420Y-94249973D01*
X138219420Y-94249973D02*
X138135241Y-94334153D01*
X138909691Y-94266809D02*
X138943363Y-94233137D01*
X138943363Y-94233137D02*
X138960199Y-94182630D01*
X138960199Y-94182630D02*
X138960199Y-94148958D01*
X138960199Y-94148958D02*
X138943363Y-94098450D01*
X138943363Y-94098450D02*
X138892855Y-94014271D01*
X138892855Y-94014271D02*
X138808676Y-93930092D01*
X138808676Y-93930092D02*
X138724496Y-93879584D01*
X138724496Y-93879584D02*
X138673989Y-93862748D01*
X138673989Y-93862748D02*
X138640317Y-93862748D01*
X138640317Y-93862748D02*
X138589809Y-93879584D01*
X138589809Y-93879584D02*
X138556138Y-93913256D01*
X138556138Y-93913256D02*
X138539302Y-93963763D01*
X138539302Y-93963763D02*
X138539302Y-93997435D01*
X138539302Y-93997435D02*
X138556138Y-94047943D01*
X138556138Y-94047943D02*
X138606645Y-94132122D01*
X138606645Y-94132122D02*
X138690825Y-94216301D01*
X138690825Y-94216301D02*
X138775004Y-94266809D01*
X138775004Y-94266809D02*
X138825512Y-94283645D01*
X138825512Y-94283645D02*
X138859183Y-94283645D01*
X138859183Y-94283645D02*
X138909691Y-94266809D01*
D10*
X148331918Y-75162810D02*
X148904337Y-75061795D01*
X148735979Y-75566871D02*
X149443085Y-74859764D01*
X149443085Y-74859764D02*
X149173711Y-74590390D01*
X149173711Y-74590390D02*
X149072696Y-74556718D01*
X149072696Y-74556718D02*
X149005353Y-74556718D01*
X149005353Y-74556718D02*
X148904337Y-74590390D01*
X148904337Y-74590390D02*
X148803322Y-74691405D01*
X148803322Y-74691405D02*
X148769650Y-74792421D01*
X148769650Y-74792421D02*
X148769650Y-74859764D01*
X148769650Y-74859764D02*
X148803322Y-74960779D01*
X148803322Y-74960779D02*
X149072696Y-75230153D01*
X147658483Y-74489375D02*
X148062544Y-74893436D01*
X147860513Y-74691405D02*
X148567620Y-73984299D01*
X148567620Y-73984299D02*
X148533948Y-74152657D01*
X148533948Y-74152657D02*
X148533948Y-74287344D01*
X148533948Y-74287344D02*
X148567620Y-74388360D01*
%TO.C,A1*%
X132553181Y-95793461D02*
X155901847Y-72444795D01*
X168474205Y-85017153D02*
X155901847Y-72444795D01*
X145125539Y-108365819D02*
X132553181Y-95793461D01*
X145125539Y-108365819D02*
X168474205Y-85017153D01*
D12*
%TO.C,R1*%
X137214893Y-88766495D02*
X139872201Y-86109188D01*
X137214893Y-88766495D02*
X137122969Y-88674571D01*
X135185497Y-86737098D02*
X130051902Y-81603503D01*
X128114429Y-79666031D02*
X128022505Y-79574107D01*
X128022505Y-79574107D02*
X130679812Y-76916799D01*
X139872201Y-86109188D02*
G75*
G03*
X144105153Y-74621319I-1945192J7240543D01*
G01*
X142167678Y-72683850D02*
G75*
G03*
X130679813Y-76916799I-4247326J-6178137D01*
G01*
D13*
X134981441Y-88978627D02*
G75*
G03*
X134981441Y-88978627I-100000J0D01*
G01*
%TD*%
M02*
