%TF.GenerationSoftware,KiCad,Pcbnew,7.0.6*%
%TF.CreationDate,2024-08-01T17:58:24-04:00*%
%TF.ProjectId,Arduino_Motor_Shield,41726475-696e-46f5-9f4d-6f746f725f53,rev?*%
%TF.SameCoordinates,Original*%
%TF.FileFunction,Legend,Top*%
%TF.FilePolarity,Positive*%
%FSLAX46Y46*%
G04 Gerber Fmt 4.6, Leading zero omitted, Abs format (unit mm)*
G04 Created by KiCad (PCBNEW 7.0.6) date 2024-08-01 17:58:24*
%MOMM*%
%LPD*%
G01*
G04 APERTURE LIST*
%ADD10C,0.150000*%
%ADD11C,0.300000*%
%ADD12C,0.254000*%
%ADD13C,0.075000*%
%ADD14C,0.120000*%
%ADD15C,0.200000*%
%ADD16C,0.100000*%
G04 APERTURE END LIST*
D10*
X120650095Y-80782438D02*
X120554857Y-80734819D01*
X120554857Y-80734819D02*
X120412000Y-80734819D01*
X120412000Y-80734819D02*
X120269143Y-80782438D01*
X120269143Y-80782438D02*
X120173905Y-80877676D01*
X120173905Y-80877676D02*
X120126286Y-80972914D01*
X120126286Y-80972914D02*
X120078667Y-81163390D01*
X120078667Y-81163390D02*
X120078667Y-81306247D01*
X120078667Y-81306247D02*
X120126286Y-81496723D01*
X120126286Y-81496723D02*
X120173905Y-81591961D01*
X120173905Y-81591961D02*
X120269143Y-81687200D01*
X120269143Y-81687200D02*
X120412000Y-81734819D01*
X120412000Y-81734819D02*
X120507238Y-81734819D01*
X120507238Y-81734819D02*
X120650095Y-81687200D01*
X120650095Y-81687200D02*
X120697714Y-81639580D01*
X120697714Y-81639580D02*
X120697714Y-81306247D01*
X120697714Y-81306247D02*
X120507238Y-81306247D01*
X121126286Y-81734819D02*
X121126286Y-80734819D01*
X121126286Y-80734819D02*
X121697714Y-81734819D01*
X121697714Y-81734819D02*
X121697714Y-80734819D01*
X122173905Y-81734819D02*
X122173905Y-80734819D01*
X122173905Y-80734819D02*
X122412000Y-80734819D01*
X122412000Y-80734819D02*
X122554857Y-80782438D01*
X122554857Y-80782438D02*
X122650095Y-80877676D01*
X122650095Y-80877676D02*
X122697714Y-80972914D01*
X122697714Y-80972914D02*
X122745333Y-81163390D01*
X122745333Y-81163390D02*
X122745333Y-81306247D01*
X122745333Y-81306247D02*
X122697714Y-81496723D01*
X122697714Y-81496723D02*
X122650095Y-81591961D01*
X122650095Y-81591961D02*
X122554857Y-81687200D01*
X122554857Y-81687200D02*
X122412000Y-81734819D01*
X122412000Y-81734819D02*
X122173905Y-81734819D01*
D11*
X131898169Y-103678508D02*
X133398169Y-103678508D01*
X133398169Y-103678508D02*
X132326740Y-104178508D01*
X132326740Y-104178508D02*
X133398169Y-104678508D01*
X133398169Y-104678508D02*
X131898169Y-104678508D01*
X131898169Y-106178509D02*
X131898169Y-105321366D01*
X131898169Y-105749937D02*
X133398169Y-105749937D01*
X133398169Y-105749937D02*
X133183883Y-105607080D01*
X133183883Y-105607080D02*
X133041026Y-105464223D01*
X133041026Y-105464223D02*
X132969598Y-105321366D01*
X123643170Y-103043511D02*
X125143170Y-103043511D01*
X125143170Y-103043511D02*
X124071741Y-103543511D01*
X124071741Y-103543511D02*
X125143170Y-104043511D01*
X125143170Y-104043511D02*
X123643170Y-104043511D01*
X125000313Y-104686369D02*
X125071741Y-104757797D01*
X125071741Y-104757797D02*
X125143170Y-104900655D01*
X125143170Y-104900655D02*
X125143170Y-105257797D01*
X125143170Y-105257797D02*
X125071741Y-105400655D01*
X125071741Y-105400655D02*
X125000313Y-105472083D01*
X125000313Y-105472083D02*
X124857456Y-105543512D01*
X124857456Y-105543512D02*
X124714599Y-105543512D01*
X124714599Y-105543512D02*
X124500313Y-105472083D01*
X124500313Y-105472083D02*
X123643170Y-104614940D01*
X123643170Y-104614940D02*
X123643170Y-105543512D01*
X157751624Y-67972633D02*
X157852639Y-68073648D01*
X157852639Y-68073648D02*
X157903147Y-68225171D01*
X157903147Y-68225171D02*
X157903147Y-68326186D01*
X157903147Y-68326186D02*
X157852639Y-68477709D01*
X157852639Y-68477709D02*
X157701116Y-68730247D01*
X157701116Y-68730247D02*
X157448578Y-68982785D01*
X157448578Y-68982785D02*
X157196040Y-69134308D01*
X157196040Y-69134308D02*
X157044517Y-69184816D01*
X157044517Y-69184816D02*
X156943502Y-69184816D01*
X156943502Y-69184816D02*
X156791979Y-69134308D01*
X156791979Y-69134308D02*
X156690964Y-69033293D01*
X156690964Y-69033293D02*
X156640456Y-68881770D01*
X156640456Y-68881770D02*
X156640456Y-68780755D01*
X156640456Y-68780755D02*
X156690964Y-68629232D01*
X156690964Y-68629232D02*
X156842487Y-68376694D01*
X156842487Y-68376694D02*
X157095025Y-68124156D01*
X157095025Y-68124156D02*
X157347563Y-67972633D01*
X157347563Y-67972633D02*
X157499086Y-67922125D01*
X157499086Y-67922125D02*
X157600101Y-67922125D01*
X157600101Y-67922125D02*
X157751624Y-67972633D01*
X157600101Y-69740399D02*
X157600101Y-69841415D01*
X157600101Y-69841415D02*
X157499086Y-69841415D01*
X157499086Y-69841415D02*
X157499086Y-69740399D01*
X157499086Y-69740399D02*
X157600101Y-69740399D01*
X157600101Y-69740399D02*
X157499086Y-69841415D01*
X158559746Y-70902075D02*
X157953654Y-70295984D01*
X158256700Y-70599029D02*
X159317360Y-69538369D01*
X159317360Y-69538369D02*
X159064822Y-69588877D01*
X159064822Y-69588877D02*
X158862792Y-69588877D01*
X158862792Y-69588877D02*
X158711269Y-69538369D01*
X159923452Y-70346491D02*
X160024467Y-70346491D01*
X160024467Y-70346491D02*
X160175990Y-70396998D01*
X160175990Y-70396998D02*
X160428528Y-70649537D01*
X160428528Y-70649537D02*
X160479036Y-70801059D01*
X160479036Y-70801059D02*
X160479036Y-70902075D01*
X160479036Y-70902075D02*
X160428528Y-71053598D01*
X160428528Y-71053598D02*
X160327513Y-71154613D01*
X160327513Y-71154613D02*
X160125482Y-71255628D01*
X160125482Y-71255628D02*
X158913299Y-71255628D01*
X158913299Y-71255628D02*
X159569898Y-71912227D01*
X161590203Y-71811212D02*
X161085127Y-71306135D01*
X161085127Y-71306135D02*
X160529543Y-71760704D01*
X160529543Y-71760704D02*
X160630558Y-71760704D01*
X160630558Y-71760704D02*
X160782081Y-71811212D01*
X160782081Y-71811212D02*
X161034619Y-72063750D01*
X161034619Y-72063750D02*
X161085127Y-72215273D01*
X161085127Y-72215273D02*
X161085127Y-72316288D01*
X161085127Y-72316288D02*
X161034619Y-72467811D01*
X161034619Y-72467811D02*
X160782081Y-72720349D01*
X160782081Y-72720349D02*
X160630558Y-72770857D01*
X160630558Y-72770857D02*
X160529543Y-72770857D01*
X160529543Y-72770857D02*
X160378020Y-72720349D01*
X160378020Y-72720349D02*
X160125482Y-72467811D01*
X160125482Y-72467811D02*
X160074974Y-72316288D01*
X160074974Y-72316288D02*
X160074974Y-72215273D01*
X161034619Y-73376948D02*
X161741726Y-72669841D01*
X161640710Y-72770856D02*
X161741726Y-72770856D01*
X161741726Y-72770856D02*
X161893248Y-72821364D01*
X161893248Y-72821364D02*
X162044771Y-72972887D01*
X162044771Y-72972887D02*
X162095279Y-73124410D01*
X162095279Y-73124410D02*
X162044771Y-73275933D01*
X162044771Y-73275933D02*
X161489187Y-73831517D01*
X162044771Y-73275933D02*
X162196294Y-73225425D01*
X162196294Y-73225425D02*
X162347817Y-73275933D01*
X162347817Y-73275933D02*
X162499340Y-73427455D01*
X162499340Y-73427455D02*
X162549848Y-73578978D01*
X162549848Y-73578978D02*
X162499340Y-73730501D01*
X162499340Y-73730501D02*
X161943756Y-74286085D01*
X162701370Y-74437608D02*
X163206447Y-74942684D01*
X162297309Y-74639639D02*
X163711523Y-73932532D01*
X163711523Y-73932532D02*
X163004416Y-75346745D01*
X164873198Y-75801314D02*
X163812538Y-76861974D01*
X164822691Y-75851821D02*
X164974213Y-75902329D01*
X164974213Y-75902329D02*
X165176244Y-76104359D01*
X165176244Y-76104359D02*
X165226752Y-76255882D01*
X165226752Y-76255882D02*
X165226752Y-76356898D01*
X165226752Y-76356898D02*
X165176244Y-76508420D01*
X165176244Y-76508420D02*
X164873198Y-76811466D01*
X164873198Y-76811466D02*
X164721675Y-76861974D01*
X164721675Y-76861974D02*
X164620660Y-76861974D01*
X164620660Y-76861974D02*
X164469137Y-76811466D01*
X164469137Y-76811466D02*
X164267107Y-76609436D01*
X164267107Y-76609436D02*
X164216599Y-76457913D01*
X165580305Y-77821619D02*
X165428782Y-77771111D01*
X165428782Y-77771111D02*
X165226752Y-77569081D01*
X165226752Y-77569081D02*
X165176244Y-77417558D01*
X165176244Y-77417558D02*
X165226752Y-77266035D01*
X165226752Y-77266035D02*
X165630813Y-76861974D01*
X165630813Y-76861974D02*
X165782336Y-76811466D01*
X165782336Y-76811466D02*
X165933858Y-76861974D01*
X165933858Y-76861974D02*
X166135889Y-77064004D01*
X166135889Y-77064004D02*
X166186397Y-77215527D01*
X166186397Y-77215527D02*
X166135889Y-77367050D01*
X166135889Y-77367050D02*
X166034874Y-77468065D01*
X166034874Y-77468065D02*
X165428782Y-77064004D01*
X166034873Y-78377203D02*
X166741980Y-77670096D01*
X166539950Y-77872126D02*
X166691473Y-77821619D01*
X166691473Y-77821619D02*
X166792488Y-77821619D01*
X166792488Y-77821619D02*
X166944011Y-77872126D01*
X166944011Y-77872126D02*
X167045026Y-77973142D01*
X167752132Y-79488370D02*
X168257209Y-79993446D01*
X167348071Y-79690400D02*
X168762285Y-78983294D01*
X168762285Y-78983294D02*
X168055178Y-80397507D01*
X122238368Y-75558125D02*
X122086845Y-75608633D01*
X122086845Y-75608633D02*
X121985830Y-75608633D01*
X121985830Y-75608633D02*
X121834307Y-75558125D01*
X121834307Y-75558125D02*
X121783799Y-75507618D01*
X121783799Y-75507618D02*
X121733292Y-75356095D01*
X121733292Y-75356095D02*
X121733292Y-75255079D01*
X121733292Y-75255079D02*
X121783799Y-75103557D01*
X121783799Y-75103557D02*
X121985830Y-74901526D01*
X121985830Y-74901526D02*
X122137353Y-74851018D01*
X122137353Y-74851018D02*
X122238368Y-74851018D01*
X122238368Y-74851018D02*
X122389891Y-74901526D01*
X122389891Y-74901526D02*
X122440398Y-74952034D01*
X122440398Y-74952034D02*
X122490906Y-75103557D01*
X122490906Y-75103557D02*
X122490906Y-75204572D01*
X122490906Y-75204572D02*
X122440398Y-75356095D01*
X122440398Y-75356095D02*
X122238368Y-75558125D01*
X122238368Y-75558125D02*
X122187860Y-75709648D01*
X122187860Y-75709648D02*
X122187860Y-75810663D01*
X122187860Y-75810663D02*
X122238368Y-75962186D01*
X122238368Y-75962186D02*
X122440398Y-76164217D01*
X122440398Y-76164217D02*
X122591921Y-76214724D01*
X122591921Y-76214724D02*
X122692936Y-76214724D01*
X122692936Y-76214724D02*
X122844459Y-76164217D01*
X122844459Y-76164217D02*
X123046490Y-75962186D01*
X123046490Y-75962186D02*
X123096997Y-75810663D01*
X123096997Y-75810663D02*
X123096997Y-75709648D01*
X123096997Y-75709648D02*
X123046490Y-75558125D01*
X123046490Y-75558125D02*
X122844459Y-75356095D01*
X122844459Y-75356095D02*
X122692936Y-75305587D01*
X122692936Y-75305587D02*
X122591921Y-75305587D01*
X122591921Y-75305587D02*
X122440398Y-75356095D01*
X123349535Y-73436805D02*
X123804104Y-75709648D01*
X125369841Y-73638835D02*
X124763749Y-74244927D01*
X125066795Y-73941881D02*
X124006135Y-72881221D01*
X124006135Y-72881221D02*
X124056642Y-73133759D01*
X124056642Y-73133759D02*
X124056642Y-73335790D01*
X124056642Y-73335790D02*
X124006135Y-73487313D01*
X125470856Y-71315485D02*
X125925424Y-73588328D01*
X125925425Y-71163962D02*
X125925425Y-71062946D01*
X125925425Y-71062946D02*
X125975932Y-70911424D01*
X125975932Y-70911424D02*
X126228470Y-70658885D01*
X126228470Y-70658885D02*
X126379993Y-70608378D01*
X126379993Y-70608378D02*
X126481008Y-70608378D01*
X126481008Y-70608378D02*
X126632531Y-70658885D01*
X126632531Y-70658885D02*
X126733547Y-70759901D01*
X126733547Y-70759901D02*
X126834562Y-70961931D01*
X126834562Y-70961931D02*
X126834562Y-72174114D01*
X126834562Y-72174114D02*
X127491161Y-71517515D01*
X127693191Y-69901271D02*
X128400298Y-70608378D01*
X127036592Y-69749748D02*
X127541668Y-70759901D01*
X127541668Y-70759901D02*
X128198267Y-70103302D01*
X124905676Y-77518326D02*
X124400599Y-78023403D01*
X124400599Y-78023403D02*
X123339939Y-76962742D01*
X125006691Y-76003097D02*
X125713798Y-76710204D01*
X124552123Y-76457666D02*
X125107706Y-77013250D01*
X125107706Y-77013250D02*
X125259229Y-77063758D01*
X125259229Y-77063758D02*
X125410752Y-77013250D01*
X125410752Y-77013250D02*
X125562275Y-76861727D01*
X125562275Y-76861727D02*
X125612783Y-76710204D01*
X125612783Y-76710204D02*
X125612783Y-76609189D01*
X126622935Y-75700051D02*
X126572428Y-75851574D01*
X126572428Y-75851574D02*
X126370397Y-76053605D01*
X126370397Y-76053605D02*
X126218874Y-76104113D01*
X126218874Y-76104113D02*
X126117859Y-76104113D01*
X126117859Y-76104113D02*
X125966336Y-76053605D01*
X125966336Y-76053605D02*
X125663290Y-75750559D01*
X125663290Y-75750559D02*
X125612783Y-75599036D01*
X125612783Y-75599036D02*
X125612783Y-75498021D01*
X125612783Y-75498021D02*
X125663290Y-75346498D01*
X125663290Y-75346498D02*
X125865321Y-75144468D01*
X125865321Y-75144468D02*
X126016844Y-75093960D01*
X127582580Y-74841422D02*
X127026996Y-74285838D01*
X127026996Y-74285838D02*
X126875473Y-74235331D01*
X126875473Y-74235331D02*
X126723950Y-74285838D01*
X126723950Y-74285838D02*
X126521920Y-74487869D01*
X126521920Y-74487869D02*
X126471412Y-74639392D01*
X127532072Y-74790914D02*
X127481565Y-74942437D01*
X127481565Y-74942437D02*
X127229027Y-75194975D01*
X127229027Y-75194975D02*
X127077504Y-75245483D01*
X127077504Y-75245483D02*
X126925981Y-75194975D01*
X126925981Y-75194975D02*
X126824966Y-75093960D01*
X126824966Y-75093960D02*
X126774458Y-74942437D01*
X126774458Y-74942437D02*
X126824966Y-74790914D01*
X126824966Y-74790914D02*
X127077504Y-74538376D01*
X127077504Y-74538376D02*
X127128011Y-74386853D01*
X127986641Y-74336346D02*
X128138164Y-74285838D01*
X128138164Y-74285838D02*
X128340195Y-74083808D01*
X128340195Y-74083808D02*
X128390702Y-73932285D01*
X128390702Y-73932285D02*
X128340195Y-73780762D01*
X128340195Y-73780762D02*
X128289687Y-73730254D01*
X128289687Y-73730254D02*
X128138164Y-73679747D01*
X128138164Y-73679747D02*
X127986641Y-73730254D01*
X127986641Y-73730254D02*
X127835118Y-73881777D01*
X127835118Y-73881777D02*
X127683595Y-73932285D01*
X127683595Y-73932285D02*
X127532073Y-73881777D01*
X127532073Y-73881777D02*
X127481565Y-73831269D01*
X127481565Y-73831269D02*
X127431057Y-73679747D01*
X127431057Y-73679747D02*
X127481565Y-73528224D01*
X127481565Y-73528224D02*
X127633088Y-73376701D01*
X127633088Y-73376701D02*
X127784611Y-73326193D01*
X128592733Y-71709949D02*
X129905931Y-72518071D01*
X129905931Y-72518071D02*
X129350347Y-71558426D01*
X129350347Y-71558426D02*
X130309992Y-72114010D01*
X130309992Y-72114010D02*
X129501870Y-70800812D01*
X130966591Y-71457411D02*
X130259485Y-70750304D01*
X129905931Y-70396750D02*
X129905931Y-70497766D01*
X129905931Y-70497766D02*
X130006947Y-70497766D01*
X130006947Y-70497766D02*
X130006947Y-70396750D01*
X130006947Y-70396750D02*
X129905931Y-70396750D01*
X129905931Y-70396750D02*
X130006947Y-70497766D01*
X131623191Y-70800811D02*
X131471668Y-70851319D01*
X131471668Y-70851319D02*
X131320145Y-70800811D01*
X131320145Y-70800811D02*
X130411008Y-69891674D01*
X131926236Y-70396750D02*
X132077759Y-70346243D01*
X132077759Y-70346243D02*
X132279790Y-70144212D01*
X132279790Y-70144212D02*
X132330297Y-69992689D01*
X132330297Y-69992689D02*
X132279790Y-69841167D01*
X132279790Y-69841167D02*
X132229282Y-69790659D01*
X132229282Y-69790659D02*
X132077759Y-69740151D01*
X132077759Y-69740151D02*
X131926236Y-69790659D01*
X131926236Y-69790659D02*
X131774713Y-69942182D01*
X131774713Y-69942182D02*
X131623191Y-69992689D01*
X131623191Y-69992689D02*
X131471668Y-69942182D01*
X131471668Y-69942182D02*
X131421160Y-69891674D01*
X131421160Y-69891674D02*
X131370652Y-69740151D01*
X131370652Y-69740151D02*
X131421160Y-69588628D01*
X131421160Y-69588628D02*
X131572683Y-69437106D01*
X131572683Y-69437106D02*
X131724206Y-69386598D01*
X133037404Y-69386598D02*
X132885882Y-69437105D01*
X132885882Y-69437105D02*
X132784866Y-69437105D01*
X132784866Y-69437105D02*
X132633343Y-69386598D01*
X132633343Y-69386598D02*
X132330298Y-69083552D01*
X132330298Y-69083552D02*
X132279790Y-68932029D01*
X132279790Y-68932029D02*
X132279790Y-68831014D01*
X132279790Y-68831014D02*
X132330298Y-68679491D01*
X132330298Y-68679491D02*
X132481820Y-68527968D01*
X132481820Y-68527968D02*
X132633343Y-68477460D01*
X132633343Y-68477460D02*
X132734359Y-68477460D01*
X132734359Y-68477460D02*
X132885882Y-68527968D01*
X132885882Y-68527968D02*
X133188927Y-68831014D01*
X133188927Y-68831014D02*
X133239435Y-68982537D01*
X133239435Y-68982537D02*
X133239435Y-69083552D01*
X133239435Y-69083552D02*
X133188927Y-69235075D01*
X133188927Y-69235075D02*
X133037404Y-69386598D01*
X133138420Y-67871369D02*
X133845527Y-68578476D01*
X133239435Y-67972384D02*
X133239435Y-67871369D01*
X133239435Y-67871369D02*
X133289943Y-67719846D01*
X133289943Y-67719846D02*
X133441466Y-67568323D01*
X133441466Y-67568323D02*
X133592988Y-67517815D01*
X133592988Y-67517815D02*
X133744511Y-67568323D01*
X133744511Y-67568323D02*
X134300095Y-68123907D01*
X124946587Y-78771421D02*
X126259785Y-79579543D01*
X126259785Y-79579543D02*
X125704201Y-78619898D01*
X125704201Y-78619898D02*
X126663846Y-79175482D01*
X126663846Y-79175482D02*
X125855724Y-77862283D01*
X127320446Y-78518882D02*
X126613339Y-77811776D01*
X126259786Y-77458222D02*
X126259786Y-77559237D01*
X126259786Y-77559237D02*
X126360801Y-77559237D01*
X126360801Y-77559237D02*
X126360801Y-77458222D01*
X126360801Y-77458222D02*
X126259786Y-77458222D01*
X126259786Y-77458222D02*
X126360801Y-77559237D01*
X127977045Y-77862283D02*
X127825522Y-77912791D01*
X127825522Y-77912791D02*
X127673999Y-77862283D01*
X127673999Y-77862283D02*
X126764862Y-76953146D01*
X128532629Y-77306699D02*
X128381106Y-77357207D01*
X128381106Y-77357207D02*
X128229583Y-77306699D01*
X128229583Y-77306699D02*
X127320446Y-76397562D01*
X128532628Y-75185379D02*
X129138720Y-74579288D01*
X129896334Y-75942994D02*
X128835674Y-74882334D01*
X130552933Y-75286395D02*
X129492273Y-74225734D01*
X131007502Y-74831826D02*
X130451918Y-74276242D01*
X130451918Y-74276242D02*
X130300395Y-74225734D01*
X130300395Y-74225734D02*
X130148872Y-74276242D01*
X130148872Y-74276242D02*
X129997350Y-74427765D01*
X129997350Y-74427765D02*
X129946842Y-74579288D01*
X129946842Y-74579288D02*
X129946842Y-74680303D01*
X131967147Y-73872181D02*
X131411563Y-73316597D01*
X131411563Y-73316597D02*
X131260040Y-73266089D01*
X131260040Y-73266089D02*
X131108517Y-73316597D01*
X131108517Y-73316597D02*
X130906487Y-73518628D01*
X130906487Y-73518628D02*
X130855979Y-73670150D01*
X131916639Y-73821673D02*
X131866132Y-73973196D01*
X131866132Y-73973196D02*
X131613594Y-74225734D01*
X131613594Y-74225734D02*
X131462071Y-74276242D01*
X131462071Y-74276242D02*
X131310548Y-74225734D01*
X131310548Y-74225734D02*
X131209533Y-74124719D01*
X131209533Y-74124719D02*
X131159025Y-73973196D01*
X131159025Y-73973196D02*
X131209533Y-73821673D01*
X131209533Y-73821673D02*
X131462071Y-73569135D01*
X131462071Y-73569135D02*
X131512578Y-73417612D01*
X131664101Y-72761013D02*
X132623746Y-73215582D01*
X132169178Y-72255937D02*
X132623746Y-73215582D01*
X132623746Y-73215582D02*
X132775269Y-73569135D01*
X132775269Y-73569135D02*
X132775269Y-73670150D01*
X132775269Y-73670150D02*
X132724762Y-73821673D01*
X133633899Y-72104414D02*
X133583391Y-72255937D01*
X133583391Y-72255937D02*
X133381361Y-72457967D01*
X133381361Y-72457967D02*
X133229838Y-72508475D01*
X133229838Y-72508475D02*
X133078315Y-72457967D01*
X133078315Y-72457967D02*
X132674254Y-72053906D01*
X132674254Y-72053906D02*
X132623746Y-71902384D01*
X132623746Y-71902384D02*
X132674254Y-71750861D01*
X132674254Y-71750861D02*
X132876284Y-71548830D01*
X132876284Y-71548830D02*
X133027807Y-71498323D01*
X133027807Y-71498323D02*
X133179330Y-71548830D01*
X133179330Y-71548830D02*
X133280345Y-71649845D01*
X133280345Y-71649845D02*
X132876284Y-72255937D01*
X134189482Y-71649846D02*
X133482376Y-70942739D01*
X133684406Y-71144769D02*
X133633899Y-70993246D01*
X133633899Y-70993246D02*
X133633899Y-70892231D01*
X133633899Y-70892231D02*
X133684406Y-70740708D01*
X133684406Y-70740708D02*
X133785421Y-70639693D01*
D10*
X155200542Y-87955947D02*
X154628123Y-87854932D01*
X154796481Y-88360008D02*
X154089375Y-87652901D01*
X154089375Y-87652901D02*
X154358749Y-87383527D01*
X154358749Y-87383527D02*
X154459764Y-87349855D01*
X154459764Y-87349855D02*
X154527107Y-87349855D01*
X154527107Y-87349855D02*
X154628123Y-87383527D01*
X154628123Y-87383527D02*
X154729138Y-87484542D01*
X154729138Y-87484542D02*
X154762810Y-87585558D01*
X154762810Y-87585558D02*
X154762810Y-87652901D01*
X154762810Y-87652901D02*
X154729138Y-87753916D01*
X154729138Y-87753916D02*
X154459764Y-88023290D01*
X155335229Y-86878451D02*
X155806634Y-87349855D01*
X154897497Y-86777436D02*
X155234214Y-87450871D01*
X155234214Y-87450871D02*
X155671947Y-87013138D01*
X154387034Y-89704793D02*
X154488049Y-89132374D01*
X153982973Y-89300732D02*
X154690080Y-88593626D01*
X154690080Y-88593626D02*
X154959454Y-88863000D01*
X154959454Y-88863000D02*
X154993126Y-88964015D01*
X154993126Y-88964015D02*
X154993126Y-89031358D01*
X154993126Y-89031358D02*
X154959454Y-89132374D01*
X154959454Y-89132374D02*
X154858439Y-89233389D01*
X154858439Y-89233389D02*
X154757423Y-89267061D01*
X154757423Y-89267061D02*
X154690080Y-89267061D01*
X154690080Y-89267061D02*
X154589065Y-89233389D01*
X154589065Y-89233389D02*
X154319691Y-88964015D01*
X154723752Y-90041511D02*
X154858439Y-90176198D01*
X154858439Y-90176198D02*
X154959454Y-90209870D01*
X154959454Y-90209870D02*
X155026797Y-90209870D01*
X155026797Y-90209870D02*
X155195156Y-90176198D01*
X155195156Y-90176198D02*
X155363515Y-90075183D01*
X155363515Y-90075183D02*
X155632889Y-89805809D01*
X155632889Y-89805809D02*
X155666561Y-89704793D01*
X155666561Y-89704793D02*
X155666561Y-89637450D01*
X155666561Y-89637450D02*
X155632889Y-89536435D01*
X155632889Y-89536435D02*
X155498202Y-89401748D01*
X155498202Y-89401748D02*
X155397187Y-89368076D01*
X155397187Y-89368076D02*
X155329843Y-89368076D01*
X155329843Y-89368076D02*
X155228828Y-89401748D01*
X155228828Y-89401748D02*
X155060469Y-89570106D01*
X155060469Y-89570106D02*
X155026797Y-89671122D01*
X155026797Y-89671122D02*
X155026797Y-89738465D01*
X155026797Y-89738465D02*
X155060469Y-89839480D01*
X155060469Y-89839480D02*
X155195156Y-89974167D01*
X155195156Y-89974167D02*
X155296171Y-90007839D01*
X155296171Y-90007839D02*
X155363515Y-90007839D01*
X155363515Y-90007839D02*
X155464530Y-89974167D01*
X164533543Y-69164754D02*
X164634558Y-68592335D01*
X164129482Y-68760693D02*
X164836589Y-68053587D01*
X164836589Y-68053587D02*
X165105963Y-68322961D01*
X165105963Y-68322961D02*
X165139635Y-68423976D01*
X165139635Y-68423976D02*
X165139635Y-68491319D01*
X165139635Y-68491319D02*
X165105963Y-68592335D01*
X165105963Y-68592335D02*
X165004948Y-68693350D01*
X165004948Y-68693350D02*
X164903932Y-68727022D01*
X164903932Y-68727022D02*
X164836589Y-68727022D01*
X164836589Y-68727022D02*
X164735574Y-68693350D01*
X164735574Y-68693350D02*
X164466200Y-68423976D01*
X165846741Y-69063739D02*
X165712054Y-68929052D01*
X165712054Y-68929052D02*
X165611039Y-68895380D01*
X165611039Y-68895380D02*
X165543696Y-68895380D01*
X165543696Y-68895380D02*
X165375337Y-68929052D01*
X165375337Y-68929052D02*
X165206978Y-69030067D01*
X165206978Y-69030067D02*
X164937604Y-69299441D01*
X164937604Y-69299441D02*
X164903932Y-69400457D01*
X164903932Y-69400457D02*
X164903932Y-69467800D01*
X164903932Y-69467800D02*
X164937604Y-69568815D01*
X164937604Y-69568815D02*
X165072291Y-69703502D01*
X165072291Y-69703502D02*
X165173306Y-69737174D01*
X165173306Y-69737174D02*
X165240650Y-69737174D01*
X165240650Y-69737174D02*
X165341665Y-69703502D01*
X165341665Y-69703502D02*
X165510024Y-69535144D01*
X165510024Y-69535144D02*
X165543696Y-69434128D01*
X165543696Y-69434128D02*
X165543696Y-69366785D01*
X165543696Y-69366785D02*
X165510024Y-69265770D01*
X165510024Y-69265770D02*
X165375337Y-69131083D01*
X165375337Y-69131083D02*
X165274322Y-69097411D01*
X165274322Y-69097411D02*
X165206978Y-69097411D01*
X165206978Y-69097411D02*
X165105963Y-69131083D01*
X151333754Y-84005456D02*
X150761335Y-83904441D01*
X150929693Y-84409517D02*
X150222587Y-83702410D01*
X150222587Y-83702410D02*
X150491961Y-83433036D01*
X150491961Y-83433036D02*
X150592976Y-83399364D01*
X150592976Y-83399364D02*
X150660319Y-83399364D01*
X150660319Y-83399364D02*
X150761335Y-83433036D01*
X150761335Y-83433036D02*
X150862350Y-83534051D01*
X150862350Y-83534051D02*
X150896022Y-83635067D01*
X150896022Y-83635067D02*
X150896022Y-83702410D01*
X150896022Y-83702410D02*
X150862350Y-83803425D01*
X150862350Y-83803425D02*
X150592976Y-84072799D01*
X150963365Y-83096319D02*
X150963365Y-83028975D01*
X150963365Y-83028975D02*
X150997037Y-82927960D01*
X150997037Y-82927960D02*
X151165396Y-82759601D01*
X151165396Y-82759601D02*
X151266411Y-82725929D01*
X151266411Y-82725929D02*
X151333754Y-82725929D01*
X151333754Y-82725929D02*
X151434770Y-82759601D01*
X151434770Y-82759601D02*
X151502113Y-82826945D01*
X151502113Y-82826945D02*
X151569457Y-82961632D01*
X151569457Y-82961632D02*
X151569457Y-83769754D01*
X151569457Y-83769754D02*
X152007189Y-83332021D01*
X127841524Y-107611057D02*
X127889143Y-107563438D01*
X127889143Y-107563438D02*
X127984381Y-107515819D01*
X127984381Y-107515819D02*
X128222476Y-107515819D01*
X128222476Y-107515819D02*
X128317714Y-107563438D01*
X128317714Y-107563438D02*
X128365333Y-107611057D01*
X128365333Y-107611057D02*
X128412952Y-107706295D01*
X128412952Y-107706295D02*
X128412952Y-107801533D01*
X128412952Y-107801533D02*
X128365333Y-107944390D01*
X128365333Y-107944390D02*
X127793905Y-108515819D01*
X127793905Y-108515819D02*
X128412952Y-108515819D01*
X129270095Y-107849152D02*
X129270095Y-108515819D01*
X129032000Y-107468200D02*
X128793905Y-108182485D01*
X128793905Y-108182485D02*
X129412952Y-108182485D01*
X129651048Y-107515819D02*
X129984381Y-108515819D01*
X129984381Y-108515819D02*
X130317714Y-107515819D01*
X154517756Y-70525718D02*
X154517756Y-70458375D01*
X154517756Y-70458375D02*
X154585100Y-70323688D01*
X154585100Y-70323688D02*
X154652443Y-70256344D01*
X154652443Y-70256344D02*
X154787130Y-70189001D01*
X154787130Y-70189001D02*
X154921817Y-70189001D01*
X154921817Y-70189001D02*
X155022833Y-70222673D01*
X155022833Y-70222673D02*
X155191191Y-70323688D01*
X155191191Y-70323688D02*
X155292207Y-70424703D01*
X155292207Y-70424703D02*
X155393222Y-70593062D01*
X155393222Y-70593062D02*
X155426894Y-70694077D01*
X155426894Y-70694077D02*
X155426894Y-70828764D01*
X155426894Y-70828764D02*
X155359550Y-70963451D01*
X155359550Y-70963451D02*
X155292207Y-71030795D01*
X155292207Y-71030795D02*
X155157520Y-71098138D01*
X155157520Y-71098138D02*
X155090176Y-71098138D01*
X153810649Y-71098138D02*
X154147367Y-70761421D01*
X154147367Y-70761421D02*
X154854474Y-71468528D01*
X153574947Y-71333841D02*
X154282054Y-72040947D01*
X153170886Y-71737902D02*
X153877993Y-71838917D01*
X153877993Y-72445008D02*
X153877993Y-71636886D01*
X152329092Y-72579696D02*
X153036199Y-73286802D01*
X151992375Y-72916413D02*
X152699482Y-73623520D01*
X152699482Y-73623520D02*
X151588314Y-73320474D01*
X151588314Y-73320474D02*
X152295421Y-74027581D01*
X149410310Y-67886165D02*
X149410310Y-67818822D01*
X149410310Y-67818822D02*
X149477653Y-67684135D01*
X149477653Y-67684135D02*
X149544997Y-67616791D01*
X149544997Y-67616791D02*
X149679684Y-67549448D01*
X149679684Y-67549448D02*
X149814371Y-67549448D01*
X149814371Y-67549448D02*
X149915386Y-67583119D01*
X149915386Y-67583119D02*
X150083745Y-67684135D01*
X150083745Y-67684135D02*
X150184760Y-67785150D01*
X150184760Y-67785150D02*
X150285775Y-67953509D01*
X150285775Y-67953509D02*
X150319447Y-68054524D01*
X150319447Y-68054524D02*
X150319447Y-68189211D01*
X150319447Y-68189211D02*
X150252103Y-68323898D01*
X150252103Y-68323898D02*
X150184760Y-68391241D01*
X150184760Y-68391241D02*
X150050073Y-68458585D01*
X150050073Y-68458585D02*
X149982729Y-68458585D01*
X148703203Y-68458585D02*
X149039920Y-68121867D01*
X149039920Y-68121867D02*
X149747027Y-68828974D01*
X148467500Y-68694287D02*
X149174607Y-69401394D01*
X148063439Y-69098348D02*
X148770546Y-69199364D01*
X148770546Y-69805455D02*
X148770546Y-68997333D01*
X147794065Y-70781936D02*
X147659378Y-70916623D01*
X147659378Y-70916623D02*
X147558363Y-70950295D01*
X147558363Y-70950295D02*
X147423676Y-70950295D01*
X147423676Y-70950295D02*
X147255317Y-70849280D01*
X147255317Y-70849280D02*
X147019615Y-70613577D01*
X147019615Y-70613577D02*
X146918600Y-70445218D01*
X146918600Y-70445218D02*
X146918600Y-70310531D01*
X146918600Y-70310531D02*
X146952271Y-70209516D01*
X146952271Y-70209516D02*
X147086959Y-70074829D01*
X147086959Y-70074829D02*
X147187974Y-70041157D01*
X147187974Y-70041157D02*
X147322661Y-70041157D01*
X147322661Y-70041157D02*
X147491020Y-70142173D01*
X147491020Y-70142173D02*
X147726722Y-70377875D01*
X147726722Y-70377875D02*
X147827737Y-70546234D01*
X147827737Y-70546234D02*
X147827737Y-70680921D01*
X147827737Y-70680921D02*
X147794065Y-70781936D01*
X146649226Y-71455371D02*
X146177821Y-70983966D01*
X146952272Y-71152325D02*
X146581882Y-70781936D01*
X146581882Y-70781936D02*
X146480867Y-70748264D01*
X146480867Y-70748264D02*
X146379852Y-70781936D01*
X146379852Y-70781936D02*
X146278836Y-70882951D01*
X146278836Y-70882951D02*
X146245165Y-70983966D01*
X146245165Y-70983966D02*
X146245165Y-71051310D01*
X146413523Y-71691073D02*
X146144149Y-71960447D01*
X146548210Y-72027791D02*
X145942119Y-71421699D01*
X145942119Y-71421699D02*
X145841104Y-71388028D01*
X145841104Y-71388028D02*
X145740088Y-71421699D01*
X145740088Y-71421699D02*
X145672745Y-71489043D01*
D12*
X128336317Y-90266763D02*
X127066317Y-90266763D01*
X128215364Y-88936286D02*
X128275841Y-88996762D01*
X128275841Y-88996762D02*
X128336317Y-89178191D01*
X128336317Y-89178191D02*
X128336317Y-89299143D01*
X128336317Y-89299143D02*
X128275841Y-89480572D01*
X128275841Y-89480572D02*
X128154888Y-89601524D01*
X128154888Y-89601524D02*
X128033936Y-89662001D01*
X128033936Y-89662001D02*
X127792031Y-89722477D01*
X127792031Y-89722477D02*
X127610602Y-89722477D01*
X127610602Y-89722477D02*
X127368698Y-89662001D01*
X127368698Y-89662001D02*
X127247745Y-89601524D01*
X127247745Y-89601524D02*
X127126793Y-89480572D01*
X127126793Y-89480572D02*
X127066317Y-89299143D01*
X127066317Y-89299143D02*
X127066317Y-89178191D01*
X127066317Y-89178191D02*
X127126793Y-88996762D01*
X127126793Y-88996762D02*
X127187269Y-88936286D01*
X128336317Y-87726762D02*
X128336317Y-88452477D01*
X128336317Y-88089620D02*
X127066317Y-88089620D01*
X127066317Y-88089620D02*
X127247745Y-88210572D01*
X127247745Y-88210572D02*
X127368698Y-88331524D01*
X127368698Y-88331524D02*
X127429174Y-88452477D01*
D10*
X153365754Y-86164456D02*
X152793335Y-86063441D01*
X152961693Y-86568517D02*
X152254587Y-85861410D01*
X152254587Y-85861410D02*
X152523961Y-85592036D01*
X152523961Y-85592036D02*
X152624976Y-85558364D01*
X152624976Y-85558364D02*
X152692319Y-85558364D01*
X152692319Y-85558364D02*
X152793335Y-85592036D01*
X152793335Y-85592036D02*
X152894350Y-85693051D01*
X152894350Y-85693051D02*
X152928022Y-85794067D01*
X152928022Y-85794067D02*
X152928022Y-85861410D01*
X152928022Y-85861410D02*
X152894350Y-85962425D01*
X152894350Y-85962425D02*
X152624976Y-86231799D01*
X152894350Y-85221647D02*
X153332083Y-84783914D01*
X153332083Y-84783914D02*
X153365754Y-85288990D01*
X153365754Y-85288990D02*
X153466770Y-85187975D01*
X153466770Y-85187975D02*
X153567785Y-85154303D01*
X153567785Y-85154303D02*
X153635128Y-85154303D01*
X153635128Y-85154303D02*
X153736144Y-85187975D01*
X153736144Y-85187975D02*
X153904502Y-85356334D01*
X153904502Y-85356334D02*
X153938174Y-85457349D01*
X153938174Y-85457349D02*
X153938174Y-85524693D01*
X153938174Y-85524693D02*
X153904502Y-85625708D01*
X153904502Y-85625708D02*
X153702472Y-85827738D01*
X153702472Y-85827738D02*
X153601457Y-85861410D01*
X153601457Y-85861410D02*
X153534113Y-85861410D01*
X162261034Y-83862793D02*
X162362049Y-83290374D01*
X161856973Y-83458732D02*
X162564080Y-82751626D01*
X162564080Y-82751626D02*
X162833454Y-83021000D01*
X162833454Y-83021000D02*
X162867126Y-83122015D01*
X162867126Y-83122015D02*
X162867126Y-83189358D01*
X162867126Y-83189358D02*
X162833454Y-83290374D01*
X162833454Y-83290374D02*
X162732439Y-83391389D01*
X162732439Y-83391389D02*
X162631423Y-83425061D01*
X162631423Y-83425061D02*
X162564080Y-83425061D01*
X162564080Y-83425061D02*
X162463065Y-83391389D01*
X162463065Y-83391389D02*
X162193691Y-83122015D01*
X163069156Y-83862793D02*
X163035484Y-83761778D01*
X163035484Y-83761778D02*
X163035484Y-83694435D01*
X163035484Y-83694435D02*
X163069156Y-83593419D01*
X163069156Y-83593419D02*
X163102828Y-83559748D01*
X163102828Y-83559748D02*
X163203843Y-83526076D01*
X163203843Y-83526076D02*
X163271187Y-83526076D01*
X163271187Y-83526076D02*
X163372202Y-83559748D01*
X163372202Y-83559748D02*
X163506889Y-83694435D01*
X163506889Y-83694435D02*
X163540561Y-83795450D01*
X163540561Y-83795450D02*
X163540561Y-83862793D01*
X163540561Y-83862793D02*
X163506889Y-83963809D01*
X163506889Y-83963809D02*
X163473217Y-83997480D01*
X163473217Y-83997480D02*
X163372202Y-84031152D01*
X163372202Y-84031152D02*
X163304858Y-84031152D01*
X163304858Y-84031152D02*
X163203843Y-83997480D01*
X163203843Y-83997480D02*
X163069156Y-83862793D01*
X163069156Y-83862793D02*
X162968141Y-83829122D01*
X162968141Y-83829122D02*
X162900797Y-83829122D01*
X162900797Y-83829122D02*
X162799782Y-83862793D01*
X162799782Y-83862793D02*
X162665095Y-83997480D01*
X162665095Y-83997480D02*
X162631423Y-84098496D01*
X162631423Y-84098496D02*
X162631423Y-84165839D01*
X162631423Y-84165839D02*
X162665095Y-84266854D01*
X162665095Y-84266854D02*
X162799782Y-84401541D01*
X162799782Y-84401541D02*
X162900797Y-84435213D01*
X162900797Y-84435213D02*
X162968141Y-84435213D01*
X162968141Y-84435213D02*
X163069156Y-84401541D01*
X163069156Y-84401541D02*
X163203843Y-84266854D01*
X163203843Y-84266854D02*
X163237515Y-84165839D01*
X163237515Y-84165839D02*
X163237515Y-84098496D01*
X163237515Y-84098496D02*
X163203843Y-83997480D01*
X163387997Y-62790790D02*
X164095104Y-63497897D01*
X164095104Y-63497897D02*
X163926745Y-63666255D01*
X163926745Y-63666255D02*
X163792058Y-63733599D01*
X163792058Y-63733599D02*
X163657371Y-63733599D01*
X163657371Y-63733599D02*
X163556356Y-63699927D01*
X163556356Y-63699927D02*
X163387997Y-63598912D01*
X163387997Y-63598912D02*
X163286982Y-63497897D01*
X163286982Y-63497897D02*
X163185966Y-63329538D01*
X163185966Y-63329538D02*
X163152295Y-63228523D01*
X163152295Y-63228523D02*
X163152295Y-63093836D01*
X163152295Y-63093836D02*
X163219638Y-62959149D01*
X163219638Y-62959149D02*
X163387997Y-62790790D01*
X162377844Y-63800942D02*
X162748234Y-64171332D01*
X162748234Y-64171332D02*
X162849249Y-64205003D01*
X162849249Y-64205003D02*
X162950264Y-64171332D01*
X162950264Y-64171332D02*
X163084951Y-64036645D01*
X163084951Y-64036645D02*
X163118623Y-63935629D01*
X162411516Y-63834614D02*
X162445188Y-63733599D01*
X162445188Y-63733599D02*
X162613547Y-63565240D01*
X162613547Y-63565240D02*
X162714562Y-63531568D01*
X162714562Y-63531568D02*
X162815577Y-63565240D01*
X162815577Y-63565240D02*
X162882921Y-63632584D01*
X162882921Y-63632584D02*
X162916592Y-63733599D01*
X162916592Y-63733599D02*
X162882921Y-63834614D01*
X162882921Y-63834614D02*
X162714562Y-64002973D01*
X162714562Y-64002973D02*
X162680890Y-64103988D01*
X162613547Y-64508049D02*
X162344173Y-64777423D01*
X162748234Y-64844767D02*
X162142142Y-64238675D01*
X162142142Y-64238675D02*
X162041127Y-64205003D01*
X162041127Y-64205003D02*
X161940111Y-64238675D01*
X161940111Y-64238675D02*
X161872768Y-64306019D01*
X161334020Y-64844767D02*
X161704409Y-65215156D01*
X161704409Y-65215156D02*
X161805424Y-65248828D01*
X161805424Y-65248828D02*
X161906439Y-65215156D01*
X161906439Y-65215156D02*
X162041126Y-65080469D01*
X162041126Y-65080469D02*
X162074798Y-64979454D01*
X161367691Y-64878439D02*
X161401363Y-64777424D01*
X161401363Y-64777424D02*
X161569722Y-64609065D01*
X161569722Y-64609065D02*
X161670737Y-64575393D01*
X161670737Y-64575393D02*
X161771752Y-64609065D01*
X161771752Y-64609065D02*
X161839096Y-64676408D01*
X161839096Y-64676408D02*
X161872768Y-64777424D01*
X161872768Y-64777424D02*
X161839096Y-64878439D01*
X161839096Y-64878439D02*
X161670737Y-65046798D01*
X161670737Y-65046798D02*
X161637065Y-65147813D01*
X160458554Y-65720233D02*
X161165661Y-66427340D01*
X160593241Y-66528355D02*
X160121837Y-66056950D01*
X160525898Y-66461011D02*
X160525898Y-66528355D01*
X160525898Y-66528355D02*
X160492226Y-66629370D01*
X160492226Y-66629370D02*
X160391211Y-66730385D01*
X160391211Y-66730385D02*
X160290195Y-66764057D01*
X160290195Y-66764057D02*
X160189180Y-66730385D01*
X160189180Y-66730385D02*
X159818791Y-66359996D01*
D12*
X144091892Y-93676819D02*
X144989918Y-92778793D01*
X145118207Y-94532081D02*
X145032681Y-94532081D01*
X145032681Y-94532081D02*
X144861628Y-94446555D01*
X144861628Y-94446555D02*
X144776102Y-94361029D01*
X144776102Y-94361029D02*
X144690576Y-94189976D01*
X144690576Y-94189976D02*
X144690576Y-94018924D01*
X144690576Y-94018924D02*
X144733339Y-93890634D01*
X144733339Y-93890634D02*
X144861628Y-93676819D01*
X144861628Y-93676819D02*
X144989918Y-93548529D01*
X144989918Y-93548529D02*
X145203733Y-93420240D01*
X145203733Y-93420240D02*
X145332023Y-93377477D01*
X145332023Y-93377477D02*
X145503075Y-93377477D01*
X145503075Y-93377477D02*
X145674128Y-93463003D01*
X145674128Y-93463003D02*
X145759654Y-93548529D01*
X145759654Y-93548529D02*
X145845180Y-93719582D01*
X145845180Y-93719582D02*
X145845180Y-93805108D01*
X146187285Y-94147213D02*
X146272811Y-94147213D01*
X146272811Y-94147213D02*
X146401101Y-94189976D01*
X146401101Y-94189976D02*
X146614916Y-94403792D01*
X146614916Y-94403792D02*
X146657680Y-94532081D01*
X146657680Y-94532081D02*
X146657680Y-94617607D01*
X146657680Y-94617607D02*
X146614916Y-94745897D01*
X146614916Y-94745897D02*
X146529390Y-94831423D01*
X146529390Y-94831423D02*
X146358338Y-94916949D01*
X146358338Y-94916949D02*
X145332023Y-94916949D01*
X145332023Y-94916949D02*
X145887943Y-95472870D01*
D10*
X157286507Y-90041912D02*
X156714088Y-89940897D01*
X156882446Y-90445973D02*
X156175340Y-89738866D01*
X156175340Y-89738866D02*
X156444714Y-89469492D01*
X156444714Y-89469492D02*
X156545729Y-89435820D01*
X156545729Y-89435820D02*
X156613072Y-89435820D01*
X156613072Y-89435820D02*
X156714088Y-89469492D01*
X156714088Y-89469492D02*
X156815103Y-89570507D01*
X156815103Y-89570507D02*
X156848775Y-89671523D01*
X156848775Y-89671523D02*
X156848775Y-89738866D01*
X156848775Y-89738866D02*
X156815103Y-89839881D01*
X156815103Y-89839881D02*
X156545729Y-90109255D01*
X157219164Y-88695042D02*
X156882446Y-89031759D01*
X156882446Y-89031759D02*
X157185492Y-89402149D01*
X157185492Y-89402149D02*
X157185492Y-89334805D01*
X157185492Y-89334805D02*
X157219164Y-89233790D01*
X157219164Y-89233790D02*
X157387523Y-89065431D01*
X157387523Y-89065431D02*
X157488538Y-89031759D01*
X157488538Y-89031759D02*
X157555881Y-89031759D01*
X157555881Y-89031759D02*
X157656897Y-89065431D01*
X157656897Y-89065431D02*
X157825255Y-89233790D01*
X157825255Y-89233790D02*
X157858927Y-89334805D01*
X157858927Y-89334805D02*
X157858927Y-89402149D01*
X157858927Y-89402149D02*
X157825255Y-89503164D01*
X157825255Y-89503164D02*
X157656897Y-89671523D01*
X157656897Y-89671523D02*
X157555881Y-89705194D01*
X157555881Y-89705194D02*
X157488538Y-89705194D01*
X145576582Y-78576245D02*
X145677597Y-78003826D01*
X145172521Y-78172184D02*
X145879628Y-77465078D01*
X145879628Y-77465078D02*
X146149002Y-77734452D01*
X146149002Y-77734452D02*
X146182674Y-77835467D01*
X146182674Y-77835467D02*
X146182674Y-77902810D01*
X146182674Y-77902810D02*
X146149002Y-78003826D01*
X146149002Y-78003826D02*
X146047987Y-78104841D01*
X146047987Y-78104841D02*
X145946971Y-78138513D01*
X145946971Y-78138513D02*
X145879628Y-78138513D01*
X145879628Y-78138513D02*
X145778613Y-78104841D01*
X145778613Y-78104841D02*
X145509239Y-77835467D01*
X146519391Y-78104841D02*
X146990796Y-78576245D01*
X146990796Y-78576245D02*
X145980643Y-78980306D01*
X157950057Y-63529730D02*
X158657164Y-64236836D01*
X158657164Y-64236836D02*
X158488805Y-64405195D01*
X158488805Y-64405195D02*
X158354118Y-64472539D01*
X158354118Y-64472539D02*
X158219431Y-64472539D01*
X158219431Y-64472539D02*
X158118416Y-64438867D01*
X158118416Y-64438867D02*
X157950057Y-64337852D01*
X157950057Y-64337852D02*
X157849042Y-64236836D01*
X157849042Y-64236836D02*
X157748027Y-64068478D01*
X157748027Y-64068478D02*
X157714355Y-63967462D01*
X157714355Y-63967462D02*
X157714355Y-63832775D01*
X157714355Y-63832775D02*
X157781698Y-63698088D01*
X157781698Y-63698088D02*
X157950057Y-63529730D01*
X156939905Y-64539882D02*
X157310294Y-64910271D01*
X157310294Y-64910271D02*
X157411309Y-64943943D01*
X157411309Y-64943943D02*
X157512324Y-64910271D01*
X157512324Y-64910271D02*
X157647011Y-64775584D01*
X157647011Y-64775584D02*
X157680683Y-64674569D01*
X156973576Y-64573554D02*
X157007248Y-64472539D01*
X157007248Y-64472539D02*
X157175607Y-64304180D01*
X157175607Y-64304180D02*
X157276622Y-64270508D01*
X157276622Y-64270508D02*
X157377637Y-64304180D01*
X157377637Y-64304180D02*
X157444981Y-64371523D01*
X157444981Y-64371523D02*
X157478653Y-64472539D01*
X157478653Y-64472539D02*
X157444981Y-64573554D01*
X157444981Y-64573554D02*
X157276622Y-64741913D01*
X157276622Y-64741913D02*
X157242950Y-64842928D01*
X157175607Y-65246989D02*
X156906233Y-65516363D01*
X157310294Y-65583706D02*
X156704202Y-64977615D01*
X156704202Y-64977615D02*
X156603187Y-64943943D01*
X156603187Y-64943943D02*
X156502172Y-64977615D01*
X156502172Y-64977615D02*
X156434828Y-65044958D01*
X155896080Y-65583707D02*
X156266469Y-65954096D01*
X156266469Y-65954096D02*
X156367484Y-65987768D01*
X156367484Y-65987768D02*
X156468500Y-65954096D01*
X156468500Y-65954096D02*
X156603187Y-65819409D01*
X156603187Y-65819409D02*
X156636859Y-65718394D01*
X155929752Y-65617379D02*
X155963423Y-65516363D01*
X155963423Y-65516363D02*
X156131782Y-65348004D01*
X156131782Y-65348004D02*
X156232797Y-65314333D01*
X156232797Y-65314333D02*
X156333813Y-65348004D01*
X156333813Y-65348004D02*
X156401156Y-65415348D01*
X156401156Y-65415348D02*
X156434828Y-65516363D01*
X156434828Y-65516363D02*
X156401156Y-65617379D01*
X156401156Y-65617379D02*
X156232797Y-65785737D01*
X156232797Y-65785737D02*
X156199126Y-65886753D01*
X155593034Y-67300966D02*
X155458347Y-67435653D01*
X155458347Y-67435653D02*
X155357332Y-67469325D01*
X155357332Y-67469325D02*
X155222645Y-67469325D01*
X155222645Y-67469325D02*
X155054286Y-67368310D01*
X155054286Y-67368310D02*
X154818584Y-67132608D01*
X154818584Y-67132608D02*
X154717568Y-66964249D01*
X154717568Y-66964249D02*
X154717568Y-66829562D01*
X154717568Y-66829562D02*
X154751240Y-66728547D01*
X154751240Y-66728547D02*
X154885927Y-66593860D01*
X154885927Y-66593860D02*
X154986942Y-66560188D01*
X154986942Y-66560188D02*
X155121629Y-66560188D01*
X155121629Y-66560188D02*
X155289988Y-66661203D01*
X155289988Y-66661203D02*
X155525690Y-66896905D01*
X155525690Y-66896905D02*
X155626706Y-67065264D01*
X155626706Y-67065264D02*
X155626706Y-67199951D01*
X155626706Y-67199951D02*
X155593034Y-67300966D01*
X154448194Y-67974401D02*
X153976790Y-67502997D01*
X154751240Y-67671356D02*
X154380851Y-67300966D01*
X154380851Y-67300966D02*
X154279836Y-67267295D01*
X154279836Y-67267295D02*
X154178820Y-67300966D01*
X154178820Y-67300966D02*
X154077805Y-67401982D01*
X154077805Y-67401982D02*
X154044133Y-67502997D01*
X154044133Y-67502997D02*
X154044133Y-67570340D01*
X154212492Y-68210104D02*
X153943118Y-68479478D01*
X154347179Y-68546821D02*
X153741088Y-67940730D01*
X153741088Y-67940730D02*
X153640072Y-67907058D01*
X153640072Y-67907058D02*
X153539057Y-67940730D01*
X153539057Y-67940730D02*
X153471714Y-68008073D01*
D12*
X139040809Y-67757318D02*
X138436047Y-67757318D01*
X138436047Y-67757318D02*
X138436047Y-66487318D01*
X139464142Y-67092080D02*
X139887476Y-67092080D01*
X140068904Y-67757318D02*
X139464142Y-67757318D01*
X139464142Y-67757318D02*
X139464142Y-66487318D01*
X139464142Y-66487318D02*
X140068904Y-66487318D01*
X140613190Y-67757318D02*
X140613190Y-66487318D01*
X140613190Y-66487318D02*
X140915571Y-66487318D01*
X140915571Y-66487318D02*
X141097000Y-66547794D01*
X141097000Y-66547794D02*
X141217952Y-66668746D01*
X141217952Y-66668746D02*
X141278429Y-66789699D01*
X141278429Y-66789699D02*
X141338905Y-67031603D01*
X141338905Y-67031603D02*
X141338905Y-67213032D01*
X141338905Y-67213032D02*
X141278429Y-67454937D01*
X141278429Y-67454937D02*
X141217952Y-67575889D01*
X141217952Y-67575889D02*
X141097000Y-67696842D01*
X141097000Y-67696842D02*
X140915571Y-67757318D01*
X140915571Y-67757318D02*
X140613190Y-67757318D01*
X142548429Y-67757318D02*
X141822714Y-67757318D01*
X142185571Y-67757318D02*
X142185571Y-66487318D01*
X142185571Y-66487318D02*
X142064619Y-66668746D01*
X142064619Y-66668746D02*
X141943667Y-66789699D01*
X141943667Y-66789699D02*
X141822714Y-66850175D01*
D13*
X140308153Y-93304241D02*
X140661706Y-93657794D01*
X140661706Y-93657794D02*
X140577527Y-93741974D01*
X140577527Y-93741974D02*
X140510183Y-93775645D01*
X140510183Y-93775645D02*
X140442840Y-93775645D01*
X140442840Y-93775645D02*
X140392332Y-93758809D01*
X140392332Y-93758809D02*
X140308153Y-93708302D01*
X140308153Y-93708302D02*
X140257645Y-93657794D01*
X140257645Y-93657794D02*
X140207137Y-93573615D01*
X140207137Y-93573615D02*
X140190301Y-93523107D01*
X140190301Y-93523107D02*
X140190301Y-93455764D01*
X140190301Y-93455764D02*
X140223973Y-93388420D01*
X140223973Y-93388420D02*
X140308153Y-93304241D01*
X140240809Y-94078691D02*
X140207137Y-94112363D01*
X140207137Y-94112363D02*
X140156630Y-94129199D01*
X140156630Y-94129199D02*
X140122958Y-94129199D01*
X140122958Y-94129199D02*
X140072450Y-94112363D01*
X140072450Y-94112363D02*
X139988271Y-94061855D01*
X139988271Y-94061855D02*
X139904092Y-93977676D01*
X139904092Y-93977676D02*
X139853584Y-93893496D01*
X139853584Y-93893496D02*
X139836748Y-93842989D01*
X139836748Y-93842989D02*
X139836748Y-93809317D01*
X139836748Y-93809317D02*
X139853584Y-93758809D01*
X139853584Y-93758809D02*
X139887256Y-93725138D01*
X139887256Y-93725138D02*
X139937763Y-93708302D01*
X139937763Y-93708302D02*
X139971435Y-93708302D01*
X139971435Y-93708302D02*
X140021943Y-93725138D01*
X140021943Y-93725138D02*
X140106122Y-93775645D01*
X140106122Y-93775645D02*
X140190301Y-93859825D01*
X140190301Y-93859825D02*
X140240809Y-93944004D01*
X140240809Y-93944004D02*
X140257645Y-93994512D01*
X140257645Y-93994512D02*
X140257645Y-94028183D01*
X140257645Y-94028183D02*
X140240809Y-94078691D01*
D14*
%TO.C,R4*%
X156735518Y-85195105D02*
X157056635Y-84873988D01*
X157774965Y-86234552D02*
X158096082Y-85913435D01*
%TO.C,R9*%
X154018930Y-89987483D02*
X154340047Y-90308600D01*
X152979483Y-91026930D02*
X153300600Y-91348047D01*
%TO.C,R6*%
X164283107Y-72112183D02*
X161567817Y-69396893D01*
X165584183Y-70811107D02*
X162868893Y-68095817D01*
%TO.C,R2*%
X153924152Y-81741505D02*
X153603035Y-82062622D01*
X152884705Y-80702058D02*
X152563588Y-81023175D01*
D15*
%TO.C,IC1*%
X122641999Y-92502001D02*
X122641999Y-90977001D01*
X122811999Y-90627001D02*
X122811999Y-87427001D01*
X132711999Y-90627001D02*
X122811999Y-90627001D01*
X122811999Y-87427001D02*
X132711999Y-87427001D01*
X132711999Y-87427001D02*
X132711999Y-90627001D01*
D14*
%TO.C,R3*%
X156010117Y-83827470D02*
X155689000Y-84148587D01*
X154970670Y-82788023D02*
X154649553Y-83109140D01*
%TO.C,R8*%
X161892930Y-84145483D02*
X162214047Y-84466600D01*
X160853483Y-85184930D02*
X161174600Y-85506047D01*
D16*
%TO.C,IC2*%
X148512780Y-95605414D02*
X149219887Y-94898307D01*
X151270497Y-91645616D02*
X151270497Y-91645616D01*
X151199786Y-91574905D02*
X151199786Y-91574905D01*
X148707235Y-92582532D02*
X146939468Y-90814765D01*
X143916586Y-91009220D02*
X144623693Y-90302113D01*
X151199786Y-91574905D02*
G75*
G03*
X151270497Y-91645616I35356J-35355D01*
G01*
X151270497Y-91645616D02*
G75*
G03*
X151199786Y-91574905I-35355J35356D01*
G01*
D14*
%TO.C,R5*%
X158821483Y-87281070D02*
X159142600Y-86959953D01*
X159860930Y-88320517D02*
X160182047Y-87999400D01*
%TO.C,R7*%
X146823600Y-77886047D02*
X146502483Y-77564930D01*
X147863047Y-76846600D02*
X147541930Y-76525483D01*
D15*
%TO.C,LED1*%
X140047000Y-68123000D02*
X140447000Y-68123000D01*
X140047000Y-70223000D02*
X140447000Y-70223000D01*
D16*
X141847000Y-69723000D02*
X141847000Y-69723000D01*
X141947000Y-69723000D02*
X141947000Y-69723000D01*
X141947000Y-69723000D02*
G75*
G03*
X141847000Y-69723000I-50000J0D01*
G01*
X141847000Y-69723000D02*
G75*
G03*
X141947000Y-69723000I50000J0D01*
G01*
%TD*%
M02*
