%TF.GenerationSoftware,KiCad,Pcbnew,7.0.6*%
%TF.CreationDate,2024-08-01T17:58:24-04:00*%
%TF.ProjectId,Arduino_Motor_Shield,41726475-696e-46f5-9f4d-6f746f725f53,rev?*%
%TF.SameCoordinates,Original*%
%TF.FileFunction,Profile,NP*%
%FSLAX46Y46*%
G04 Gerber Fmt 4.6, Leading zero omitted, Abs format (unit mm)*
G04 Created by KiCad (PCBNEW 7.0.6) date 2024-08-01 17:58:24*
%MOMM*%
%LPD*%
G01*
G04 APERTURE LIST*
%TA.AperFunction,Profile*%
%ADD10C,0.100000*%
%TD*%
%ADD11C,0.100000*%
G04 APERTURE END LIST*
D10*
X165594368Y-63395632D02*
G75*
G03*
X158193494Y-60301979I-5668268J-3160768D01*
G01*
X169163987Y-73533002D02*
G75*
G03*
X165594397Y-63395616I-31290787J-5320998D01*
G01*
X119750906Y-101373778D02*
G75*
G03*
X123850392Y-107206344I9254094J2147378D01*
G01*
X136525000Y-69596000D02*
G75*
G03*
X136525000Y-69596000I-1270000J0D01*
G01*
X140208000Y-106934000D02*
G75*
G03*
X140208000Y-106934000I-1270000J0D01*
G01*
X119888000Y-84709000D02*
G75*
G03*
X119888000Y-84709000I-1270000J0D01*
G01*
X119750930Y-101373772D02*
X116027329Y-85326842D01*
X116100653Y-82558490D02*
G75*
G03*
X116027329Y-85326842I5284347J-1525110D01*
G01*
X129653236Y-68208346D02*
G75*
G03*
X118741955Y-76501782I4936264J-17818854D01*
G01*
X118741961Y-76501778D02*
G75*
G03*
X116101808Y-82554546I21847239J-13131722D01*
G01*
X123850389Y-107206348D02*
G75*
G03*
X125544806Y-108101913I5963111J9231548D01*
G01*
D11*
X169164000Y-84175072D02*
X169190163Y-84017196D01*
X169215067Y-83858804D01*
X169238740Y-83699893D01*
X169261209Y-83540460D01*
X169282502Y-83380502D01*
X169302648Y-83220017D01*
X169321676Y-83059003D01*
X169339612Y-82897457D01*
X169356485Y-82735377D01*
X169372324Y-82572759D01*
X169387157Y-82409601D01*
X169401011Y-82245900D01*
X169413915Y-82081655D01*
X169425896Y-81916863D01*
X169436984Y-81751520D01*
X169447207Y-81585624D01*
X169456591Y-81419174D01*
X169465166Y-81252165D01*
X169472960Y-81084596D01*
X169480001Y-80916464D01*
X169486316Y-80747767D01*
X169491935Y-80578501D01*
X169496885Y-80408665D01*
X169501195Y-80238256D01*
X169504892Y-80067271D01*
X169508005Y-79895707D01*
X169510562Y-79723562D01*
X169512590Y-79550834D01*
X169514119Y-79377520D01*
X169515176Y-79203617D01*
X169515790Y-79029123D01*
X169515989Y-78854036D01*
X169515989Y-78854036D02*
X169515790Y-78678948D01*
X169515176Y-78504454D01*
X169514119Y-78330551D01*
X169512590Y-78157237D01*
X169510562Y-77984509D01*
X169508005Y-77812364D01*
X169504892Y-77640800D01*
X169501195Y-77469815D01*
X169496885Y-77299406D01*
X169491935Y-77129570D01*
X169486316Y-76960304D01*
X169480001Y-76791607D01*
X169472960Y-76623475D01*
X169465166Y-76455906D01*
X169456591Y-76288897D01*
X169447207Y-76122447D01*
X169436984Y-75956551D01*
X169425896Y-75791208D01*
X169413915Y-75626416D01*
X169401011Y-75462171D01*
X169387157Y-75298470D01*
X169372324Y-75135312D01*
X169356485Y-74972694D01*
X169339612Y-74810614D01*
X169321676Y-74649068D01*
X169302648Y-74488054D01*
X169282502Y-74327569D01*
X169261209Y-74167611D01*
X169238740Y-74008178D01*
X169215067Y-73849267D01*
X169190163Y-73690875D01*
X169164000Y-73533000D01*
D10*
X125544805Y-108101915D02*
G75*
G03*
X169164000Y-84175072I12328395J29247875D01*
G01*
X160528000Y-99822000D02*
G75*
G03*
X160528000Y-99822000I-1270000J0D01*
G01*
X129653238Y-68208353D02*
X158193504Y-60302014D01*
M02*
